PathFileType	4	(X/Y/Z)	C:/Users/beibeiliu/ov580/test_trc\sequence.43_training_dense_left.trc
DataRate	CameraRate	NumFrames	NumMarkers	Units	OrigDataRate	OrigDataStartFrame	OrigNumFrames
120	120	22	19	mm	120	29	84
Frame#	Time	ThumbCMC			ThumbMCP			ThumbIP			ThumbTip			IndexMCP			IndexPIP			IndexTip			MiddleMCP			MiddlePIP			MiddleTip			RingMCP			RingPIP			RingTip			PinkyMCP			PinkyPIP			PinkyTip			BackHand1			BackHand2			BackHand3	
		X0	Y0	Z0	X1	Y1	Z1	X2	Y2	Z2	X3	Y3	Z3	X4	Y4	Z4	X5	Y5	Z5	X6	Y6	Z6	X7	Y7	Z7	X8	Y8	Z8	X9	Y9	Z9	X10	Y10	Z10	X11	Y11	Z11	X12	Y12	Z12	X13	Y13	Z13	X14	Y14	Z14	X15	Y15	Z15	X16	Y16	Z16	X17	Y17	Z17	X18	Y18	Z18	
28	0.233333	-218.654	54.877	79.2413	-214.942	79.8489	87.1143	-202.528	102.321	88.0407	-188.84	117.964	93.6267	-166.41	87.7322	55.916	-159.138	109.118	71.0481	-176.052	106.578	99.6835	-154.545	83.2317	69.2844	-156.346	103.676	94.4692	-176.154	88.4469	109.385	-147.695	76.5936	89.9191	-164.361	87.1606	108.848	-183.465	70.1894	111.223	-145.348	61.4058	100.089	-162.329	71.0965	117.249	-183.222	56.3835	113.23	-164.747	29.5665	76.6035	-189.089	8.91148	84.9968	-194.91	31.0086	66.272	
29	0.241667	-217.747	57.1214	90.1293	-207.471	83.6399	101.076	-198.786	105.789	107.449	-180.546	118.384	116.921	-163.165	90.1001	68.6938	-155.15	111.365	87.8183	-173.914	105.351	113.188	-146.077	84.1549	81.6843	-148.706	98.6198	108.095	-175.811	82.0736	119.944	-144.041	73.0016	96.9766	-156.451	80.7904	119.097	-177.087	64.0653	122.168	-143.356	57.3207	104.526	-157.586	66.3235	124.229	-179.46	54.6327	117.516	-171.47	31.851	77.4313	-189.523	14.859	83.4474	-196.995	38.0834	69.2311	
30	0.25	-211.452	61.4378	92.6458	-205.598	90.0627	106.791	-191.491	102.187	115.198	-171.269	114.691	124.298	-160.773	99.3276	73.3716	-150.116	109.955	94.0781	-168.916	99.9362	120.733	-145.614	83.1221	84.5744	-144.15	96.0022	113.679	-168.201	79.8081	124.487	-139.856	73.5087	99.7121	-152.698	76.6879	124.764	-176.947	64.8288	120.15	-139.93	56.477	107.966	-152.196	62.7901	126.134	-179.356	51.653	119.625	-165.911	32.9211	76.2691	-189.508	15.6621	82.937	-194.786	42.1627	70.4447	
31	0.258333	-216.291	60.4355	86.5123	-209.965	91.732	97.8478	-194.268	104.807	102.048	-175.166	120.766	110.493	-162.503	96.0192	62.4256	-156.433	113.545	80.8613	-172.974	105.025	106.196	-148.155	88.6712	74.7902	-149.884	99.8	101.337	-175.272	83.705	112.713	-142.353	71.7321	90.2219	-152.567	82.1863	111.073	-177.359	66.2107	112.184	-140.354	55.7128	98.9569	-154.904	65.7126	119.572	-176.363	56.3001	114.556	-169.625	32.4656	71.3581	-192.869	16.5214	80.8678	-199.479	44.3475	65.5908	
32	0.266667	-217.717	56.0916	71.071	-213.673	86.0139	72.3647	-200.237	106.478	71.5294	-178.435	117.641	74.643	-172.999	83.8386	35.8144	-162.643	107.694	51.0797	-177.328	102.785	76.8619	-153.177	79.8614	51.5437	-153.469	101.763	72.7458	-178.555	86.3552	87.1919	-147.286	74.0599	67.5176	-156.47	87.6628	88.2954	-178.813	70.6208	93.3195	-141.788	61.3757	84.3187	-159.141	75.4957	95.7518	-179.931	58.4095	94.0727	-168.231	27.9579	63.8069	-191.233	13.5702	78.1642	-196.391	31.9527	59.7976	
33	0.275	-222.633	50.0424	54.1814	-217.475	79.396	42.8499	-202.675	98.7279	32.1372	-186.75	110.433	31.1547	-174.794	66.9627	11.7586	-168.478	94.6561	15.5626	-184.735	96.3699	41.327	-158.98	73.487	22.8047	-160.936	98.0619	36.1931	-182.322	87.3866	56.5317	-151.666	73.923	41.1595	-162.419	90.2836	55.6475	-182.288	71.9532	67.8078	-143.69	69.961	59.9644	-162.471	81.8818	66.8026	-180.954	66.8857	75.2589	-170.48	26.4124	53.4591	-186.014	15.6883	71.6115	-196.173	24.0142	49.1047	
34	0.283333	-222.558	47.6607	46.6313	-222.829	73.3033	27.3988	-211.778	86.1329	11.7944	-194.585	98.8116	0.419036	-183.213	51.7068	-4.67229	-177.608	81.9548	-8.01754	-189.058	90.2758	13.4199	-164.563	63.0969	1.4042	-168.405	90.99	9.87063	-188.257	80.8776	33.76	-153.387	67.47	20.2845	-169.687	89.8487	26.9149	-184.263	74.9219	47.1702	-146.315	66.0206	39.3579	-164.711	86.202	41.3803	-182.415	71.0172	52.5127	-171.441	27.7449	48.089	-185.927	21.8572	73.4429	-195.957	23.2221	46.8866	
35	0.291667	-224.091	53.3693	46.506	-219.957	72.4869	20.1191	-212.021	81.5899	3.99158	-198.765	92.7441	-12.0467	-186.921	43.7804	-10.2785	-184.747	72.5783	-21.3069	-193.619	85.4255	-0.43455	-164.111	56.1149	-4.89673	-171.602	83.9659	-5.99918	-189.528	82.9185	19.8639	-154.154	63.3622	10.0919	-168.46	88.0848	12.6609	-182.76	79.8991	32.9157	-145.945	68.9575	24.2286	-163.588	87.2008	26.3964	-177.981	78.7068	42.7759	-168.302	30.7849	46.5898	-181.525	29.3609	72.9546	-197.654	28.808	49.9654	
36	0.3	-222.68	58.8602	49.2307	-218.322	72.4179	21.0871	-213.303	78.1677	2.06337	-205.597	86.5212	-21.4387	-187.011	38.7141	-5.0617	-182.912	58.789	-22.5399	-192.836	79.9938	-3.18525	-169.491	46.179	-4.06717	-172.503	72.9617	-15.8014	-184.128	82.8769	13.8159	-156.128	55.9543	8.24004	-164.744	80.0618	1.86962	-182.367	78.3965	28.3273	-148.016	64.5604	18.6145	-161.127	82.3902	15.5447	-176.332	80.5629	37.2261	-167.285	36.8374	53.5887	-179.217	38.2466	75.8322	-196.595	34.2265	55.6139	
37	0.308333	-220.644	60.8628	51.4452	-220.561	69.2979	21.3348	-217.944	72.6016	2.73347	-211.835	75.719	-21.9324	-193.176	31.8206	-4.447	-192.016	51.9077	-21.3784	-201.815	72.6076	-2.76308	-174.359	38.1638	-0.0630931	-175.751	63.1649	-16.5192	-185.281	77.523	10.1066	-159.365	48.5534	7.16934	-171.818	73.4965	-1.39834	-180.301	78.1202	27.1488	-148.06	55.007	20.3751	-158.726	76.8266	10.0404	-177.503	79.6196	26.1866	-173.949	37.4584	56.5394	-175.935	44.0168	80.4299	-201.285	34.9248	58.6065	
38	0.316667	-219.661	59.7019	55.316	-225.687	68.5664	24.6637	-223.985	67.0763	2.04373	-214.226	68.0169	-17.0223	-201.564	24.9879	3.7473	-202.341	43.961	-19.3523	-203.46	66.7558	-0.467059	-184.351	29.6789	0.792942	-181.903	54.854	-16.4582	-189.929	71.3998	12.0692	-167.385	40.8491	4.95205	-173.955	65.1108	-3.9606	-183.304	74.3319	21.0387	-153.895	49.2953	16.1212	-161.068	69.7678	6.65	-177.984	77.3698	29.6474	-171.581	36.733	57.5584	-180.406	44.0493	79.9647	-202.729	33.8777	63.9414	
39	0.325	-219.68	57.1838	57.5251	-223.609	64.5294	29.7651	-225.139	62.088	2.38003	-216.455	61.3801	-21.4551	-203.15	21.4784	1.25116	-203.931	37.4253	-17.3426	-208.61	63.1768	2.53733	-182.243	26.7174	-0.719101	-185.584	52.065	-14.5312	-190.937	68.1972	9.3077	-170.822	36.231	6.18036	-176.596	61.3358	-3.12363	-184.138	72.213	23.2817	-155.211	45.7772	13.7152	-165.579	65.4023	5.90893	-178.789	71.8078	28.3901	-174.942	31.6195	58.4384	-177.019	43.6521	80.6082	-203.595	33.8096	67.2402	
40	0.333333	-226.585	58.8539	56.6085	-227.067	65.4395	28.6144	-230.021	64.9488	5.27046	-224.203	65.8558	-18.5855	-208.021	22.516	1.56277	-210.005	42.2868	-15.4854	-209.319	65.0093	2.30108	-188.963	27.3175	-0.193421	-190.534	51.3958	-15.2427	-200	68.1858	10.8923	-172.644	36.4995	5.36552	-180.532	60.7333	-4.29203	-189.692	70.1451	23.7169	-160.737	41.6349	15.9468	-167.018	63.5837	5.14414	-183.682	71.4058	25.0026	-173.832	29.3133	55.0031	-179.724	40.98	81.0068	-203.246	31.7716	67.7496	
41	0.341667	-229.133	69.9801	61.0439	-226.439	81.3915	35.9127	-232.306	84.089	7.49718	-225.282	82.4873	-13.801	-226.921	37.2335	4.333	-222.412	55.2074	-15.4108	-213.314	77.154	2.97532	-204.574	35.9438	-2.77602	-201.099	62.0773	-14.7261	-198.079	76.3022	14.9635	-184.906	39.0727	3.75704	-189.442	65.4219	-3.32007	-194.028	74.5148	23.3051	-168.303	41.1501	11.4363	-174.633	64.6572	5.0412	-184.354	74.0924	29.9257	-188.65	29.5229	53.4231	-190.327	39.2997	78.7661	-215.483	39.105	68.1118	
42	0.35	-225.917	86.4318	61.9677	-224.157	104.39	39.4798	-224.058	105.972	13.559	-219.908	108.29	-5.76189	-247.907	68.0597	5.97549	-232.341	85.9224	-12.554	-214.052	98.1773	8.96532	-226.566	58.5343	-5.37709	-209.309	79.2061	-13.4898	-203.809	88.5446	19.0069	-207.501	50.1807	0.252411	-193.591	74.5995	-2.51245	-195.235	80.3704	24.5305	-191.52	42.6117	5.98279	-186.755	67.0873	2.59332	-190.784	75.8139	27.1012	-212.127	35.7945	50.6575	-205.467	40.1612	75.2246	-228.971	53.3685	66.4296	
43	0.358333	-214.327	100.201	64.7674	-204.566	111.268	39.8329	-201.643	119.259	19.5361	-197.872	119.42	-7.48873	-244.296	97.1876	4.77266	-227.833	110.079	-12.8364	-201.218	107.878	1.89757	-234.739	80.1198	-2.38293	-207.971	93.8738	-13.4801	-195.661	89.7195	14.1972	-222.468	67.386	-4.31889	-200.087	77.7413	-6.73856	-191.75	76.9362	22.7104	-214.818	53.1475	1.27745	-195.173	65.9099	0.351203	-191.795	73.2695	23.9015	-235.101	52.6014	45.2265	-224.412	45.1261	71.1814	-236.169	74.9883	66.5458	
44	0.366667	-196.799	93.8902	62.9049	-177.534	102.417	36.8875	-172.574	109.328	11.5051	-172.982	104.618	-8.69883	-221.448	117.13	6.08615	-204.12	114.269	-15.5751	-182.372	95.9317	0.178857	-225.277	99.1778	-2.23234	-201.454	90.8979	-18.5858	-186.886	80.5854	10.555	-223.537	77.2692	-7.56977	-199.507	73.0135	-10.0441	-192.363	66.8412	19.3001	-227.346	60.6851	1.94565	-199.81	59.577	0.767181	-196.9	66.2506	26.4618	-240.335	71.4028	44.5606	-234.123	64.9241	69.0662	-229.109	93.678	62.258	
45	0.375	-182.272	83.5056	57.1846	-164.494	80.8498	30.8133	-158.796	80.8863	11.5643	-154.061	79.9944	-8.54439	-193.235	115.207	1.29683	-177.55	101.026	-17.6447	-169.739	77.6095	-1.84507	-205.215	100.5	-9.3797	-189.494	77.2695	-19.7061	-183.237	65.0493	6.95309	-214.122	84.608	-8.22919	-196.272	66.2585	-11.6644	-194.426	58.7346	19.4045	-224.215	66.7375	-5.19568	-205.419	52.6764	-1.98144	-198.204	55.2792	21.8242	-236.418	83.007	40.3294	-232.461	76.0328	67.7436	-212.942	95.6567	59.7665	
46	0.383333	-172.512	70.1889	54.4414	-154.748	58.1199	33.3624	-148.894	57.1417	12.0585	-150.183	54.7289	-12.4464	-168.655	99.8051	-0.588	-161.113	81.2137	-20.5523	-167.057	55.8656	-2.76175	-183.453	91.4155	-12.467	-176.115	61.9253	-20.7871	-181.791	51.093	6.5937	-205.24	78.1092	-13.1343	-189.745	54.3878	-12.9374	-195.686	47.2539	14.6183	-215.986	67.1729	-10.1837	-203.768	49.8311	-6.96199	-201.772	48.624	18.6873	-219.198	90.9158	34.3899	-225.411	79.7378	61.0685	-196.74	91.3021	55.1146	
47	0.391667	-172.518	56.1665	54.3975	-160.887	42.3643	32.0473	-147.693	35.6034	10.1715	-148.899	30.0206	-11.2035	-156.817	79.9771	-6.87717	-153.359	59.0916	-20.1374	-165.225	37.5278	0.423335	-176.288	77.0979	-14.0662	-177.629	46.9735	-23.6747	-184.101	39.1705	7.62145	-195.623	66.8957	-19.0332	-190.931	42.995	-14.1311	-199.091	40.4563	14.511	-211.382	65.1115	-11.5608	-206.81	41.4	-6.01636	-205.827	45.2684	19.8481	-212.485	86.8995	29.9361	-217.239	84.5775	53.4255	-189.494	86.0018	50.7573	
48	0.4	-178.821	51.2055	54.4554	-167.708	31.8856	33.1536	-156.911	20.7432	11.1821	-164.959	17.809	-11.8501	-157.699	64.2828	-9.67128	-161.573	39.3136	-22.4126	-175.414	25.5587	1.09904	-178.807	62.848	-18.8135	-180.92	31.5201	-21.4623	-189.313	30.8873	10.0109	-195.722	59.1348	-17.7927	-201.899	31.396	-13.394	-201.473	37.202	16.0634	-215.529	55.5351	-16.879	-211.828	34.3883	-4.17239	-210.414	38.92	17.5207	-211.184	86.8623	23.3687	-216.853	85.3783	45.5528	-192.095	82.7049	44.507	
49	0.408333	-177.708	45.4651	50.2144	-173.384	25.4378	32.9793	-168.36	12.6486	12.4117	-174.931	4.51117	-11.1355	-162.824	49.4597	-14.7014	-169.336	23.2382	-19.4932	-181.426	16.2344	4.61944	-182.308	49.7229	-22.0567	-191.511	21.7091	-21.073	-201.441	25.5106	11.8595	-203.118	48.6762	-21.6454	-206.784	22.8359	-10.137	-211.207	28.543	16.5333	-217.901	54.1533	-13.7635	-216.923	29.7444	-5.13587	-217.096	34.1241	22.4435	-208.311	83.7591	17.1563	-214.338	83.2908	44.4549	-189.02	78.1523	39.4905	
